<svg width="25" height="25" viewBox="0 0 16 16" fill="none" xmlns="http://www.w3.org/2000/svg">
    <path d="M8 0.25C3.58 0.25 0 3.83 0 8.25C0 12.33 2.69 15.68 6.38 16.75C6.88 16.83 7.16 16.43 7.16 16.09C7.16 15.82 7.15 14.97 7.15 14.13C4.76 14.55 4.15 13.29 4.15 13.29C3.9 12.56 3.56 12.29 3.56 12.29C3.14 11.72 3.69 11.73 3.69 11.73C4.25 11.74 4.66 12.29 4.66 12.29C5.24 13.26 6.07 12.83 6.57 12.55C6.67 12.01 6.88 11.67 7.11 11.53C5.24 11.28 3.36 10.61 3.36 7.69C3.36 7.05 3.7 6.55 4.16 6.24C4.1 5.97 3.83 5.2 4.27 4.25C4.27 4.25 4.81 4.1 7.16 5.32C7.67 5.13 8.24 5.02 8.82 5.02C9.39 5.02 10.03 5.13 10.55 5.32C12.89 4.1 13.43 4.25 13.43 4.25C13.87 5.2 13.6 5.97 13.54 6.24C14 6.55 14.36 7.05 14.36 7.69C14.36 10.61 12.48 11.28 10.61 11.53C10.87 11.67 11.09 12.01 11.2 12.55C11.7 12.83 12.53 13.26 13.11 12.29C13.11 12.29 13.52 11.74 14.08 11.73C14.08 11.73 14.63 11.72 14.21 12.29C14.21 12.29 13.88 12.56 13.63 13.29C13.63 13.29 12.88 14.55 10.49 14.13C10.49 14.97 10.48 15.82 10.48 16.09C10.48 16.43 10.76 16.83 11.26 16.75C14.95 15.68 17.64 12.33 17.64 8.25C17.64 3.83 14.06 0.25 8 0.25Z" fill="white"/>
</svg>

